<?xml version="1.0" encoding="UTF-8"?>
<svg id="LogoGS-main" xmlns="http://www.w3.org/2000/svg" viewBox="0 0 85.86 53.32">
  <g id="Grupo_2" data-name="Grupo 2">
    <path id="Trazado_10" data-name="Trazado 10" d="m7.08,29.81c.78-.02,1.56.16,2.25.51l-.17,1.16c-1.73-1.05-3.99-.5-5.04,1.23-.2.32-.34.68-.43,1.04-.32,1.21.41,2.45,1.62,2.76.28.07.57.09.85.06.42,0,.84-.07,1.23-.23l.46-2.87h1.23l-.59,3.73c-.78.32-1.62.49-2.47.5-1.99,0-4.04-1.23-3.58-4.1.38-2.25,2.36-3.88,4.64-3.8Z" style="fill: #fff;"/>
    <path id="Trazado_11" data-name="Trazado 11" d="m9.6,37.57l1.21-7.61h3.02c1.39,0,2.86.6,2.57,2.46-.16,1.13-1.05,2.02-2.19,2.18l1.93,2.98h-1.39l-1.82-2.85h-1.63l-.46,2.85h-1.24Zm1.88-3.95h1.84c.86.12,1.66-.45,1.84-1.3.15-.98-.59-1.23-1.4-1.23h-1.87l-.4,2.53Z" style="fill: #fff;"/>
    <path id="Trazado_12" data-name="Trazado 12" d="m24.04,29.95l-.76,4.83c-.19,1.81-1.81,3.12-3.61,2.93-1.7,0-3.24-.79-2.89-3l.76-4.75h1.24l-.75,4.76c-.23,1.39.51,1.84,1.66,1.84,1.16.14,2.22-.68,2.36-1.84,0-.03,0-.05,0-.08l.74-4.69h1.24Z" style="fill: #fff;"/>
    <path id="Trazado_13" data-name="Trazado 13" d="m28.14,29.95c1.6,0,3.11.61,2.8,2.58-.29,1.89-1.78,2.43-3.59,2.43h-1.53l-.41,2.61h-1.24l1.21-7.61h2.77Zm-.07,1.13h-1.64l-.43,2.74h1.53c1.11,0,1.99-.3,2.17-1.41s-.74-1.32-1.62-1.32h0Z" style="fill: #fff;"/>
    <path id="Trazado_14" data-name="Trazado 14" d="m34.94,37.71c-1.83.11-3.39-1.29-3.5-3.12-.02-.3,0-.61.07-.91.33-2.26,2.29-3.92,4.57-3.87,1.84-.1,3.41,1.32,3.51,3.16.02.29,0,.58-.07.87-.31,2.27-2.29,3.94-4.58,3.87Zm.08-1.16c1.64.04,3.05-1.17,3.25-2.81.31-1.17-.38-2.38-1.56-2.69-.23-.06-.47-.08-.7-.07-1.64-.04-3.04,1.18-3.24,2.81-.31,1.17.39,2.38,1.56,2.69.23.06.46.08.69.07Z" style="fill: #fff;"/>
  </g>
  <g id="Grupo_3" data-name="Grupo 3">
    <path id="Trazado_15" data-name="Trazado 15" d="m6.28,40.48c1.42-.03,2.83.33,4.06,1.04l-.44,2.87c-1.02-.74-2.26-1.12-3.52-1.09-1.27.02-1.83.35-1.86.86-.1,1.62,6.24,1.3,5.45,5.59-.51,2.8-2.73,3.57-5.35,3.57-1.62.04-3.22-.37-4.62-1.18l.48-2.97c1.16.89,2.6,1.36,4.06,1.34,1.27,0,2.04-.3,2.11-.84.28-2.02-6.12-1.42-5.42-5.75.39-2.36,2.67-3.43,5.05-3.43Z" style="fill: #fff;"/>
    <path id="Trazado_16" data-name="Trazado 16" d="m19.01,53.05l-.4-1.93h-5.1l-1,1.93h-3.41l6.79-12.31h3.52l2.88,12.31h-3.28Zm-4.12-4.57h3.17l-.67-3.45c-.09-.45-.13-.9-.14-1.35-.14.46-.32.9-.54,1.32l-1.81,3.48Z" style="fill: #fff;"/>
    <path id="Trazado_17" data-name="Trazado 17" d="m26.91,40.74l-1.49,9.41h5.63l-.46,2.9h-8.88l1.95-12.31h3.25Z" style="fill: #fff;"/>
    <path id="Trazado_18" data-name="Trazado 18" d="m36.69,40.74l-1.95,12.31h-3.25l1.95-12.31h3.25Z" style="fill: #fff;"/>
    <path id="Trazado_19" data-name="Trazado 19" d="m36,53.05l1.95-12.31h2.71l4.11,7c.03-.67.1-1.33.21-1.99l.79-5.01h3.25l-1.95,12.31h-2.71l-4.1-6.98c-.02.61-.07,1.22-.18,1.83l-.84,5.15h-3.25Z" style="fill: #fff;"/>
    <path id="Trazado_20" data-name="Trazado 20" d="m56.4,53.05l-.4-1.93h-5.1l-1,1.93h-3.41l6.79-12.31h3.52l2.88,12.31h-3.28Zm-4.11-4.57h3.17l-.67-3.45c-.09-.45-.13-.9-.14-1.35-.14.46-.32.9-.55,1.32l-1.81,3.48Z" style="fill: #fff;"/>
    <path id="Trazado_21" data-name="Trazado 21" d="m65.97,40.48c1.42-.03,2.83.33,4.06,1.04l-.44,2.87c-1.02-.74-2.26-1.12-3.52-1.09-1.27.02-1.83.35-1.86.86-.11,1.62,6.24,1.3,5.45,5.59-.51,2.8-2.73,3.57-5.35,3.57-1.62.04-3.22-.37-4.62-1.18l.48-2.97c1.16.89,2.6,1.36,4.06,1.34,1.27,0,2.04-.3,2.11-.84.28-2.02-6.12-1.42-5.42-5.75.39-2.36,2.67-3.43,5.05-3.43Z" style="fill: #fff;"/>
  </g>
  <path id="Trazado_22" data-name="Trazado 22" d="m83.8,28.33c0,6.63-2.95,12.92-8.04,17.16-.45.38-.44.95,0,1.09.47.15.95-.26,1.29-.56,10.86-9.69,11.81-26.35,2.12-37.22-9.69-10.86-26.35-11.81-37.22-2.12-2.83,2.53-5.09,5.64-6.61,9.12-1.11,2.85.31,6.06,3.16,7.16.6.23,1.23.36,1.87.37.68-1.73,4.12-17.78,21.17-17.33,12.28.33,22.24,9.99,22.24,22.32" style="fill: #fff;"/>
  <path id="Trazado_23" data-name="Trazado 23" d="m47.19,20.21c0-1.67,1.35-3.03,3.03-3.03s3.03,1.35,3.03,3.03-1.35,3.03-3.03,3.03h0c-1.67,0-3.02-1.36-3.02-3.03" style="fill: #fff;"/>
  <path id="Trazado_24" data-name="Trazado 24" d="m43.27,33.5c4.8,3.58,10.62,5.53,16.61,5.54,6.18.07,12.2-1.95,17.08-5.74,0,0,1.09-.74.23-1.45-.62-.51-1.53.05-1.98.37-4.47,3.13-9.75,4.91-15.2,5.11-5.94.21-11.79-1.49-16.69-4.84,0,0-.49-.42-.64.13-.09.35.6.88.6.88" style="fill: #fff;"/>
  <path id="Trazado_25" data-name="Trazado 25" d="m71.05,30.35c-3.27,1.87-6.87,3.08-10.61,3.57-5.94.71-11.95-.49-17.17-3.43,0,0-.53-.38-.62.19-.06.36.68.82.68.82,5.13,3.17,11.14,4.62,17.15,4.13,4.31-.36,8.48-1.72,12.18-3.97.47-.23.91-.51,1.32-.83.39-.33.45-.92.12-1.31-.05-.06-.1-.11-.16-.15-.56-.44-1.03-.12-1.41.08-.14.08-.58.41-1.47.9" style="fill: #fff;"/>
  <path id="Trazado_26" data-name="Trazado 26" d="m67.85,27.84c-2.29,1.19-4.73,2.07-7.25,2.61-5.84,1.22-11.91.56-17.35-1.91,0,0-.56-.33-.6.24-.03.36.75.76.75.76,8.26,4.17,18.04,4,26.16-.45,0,0,.74-.39,1.18-.67.48-.3.73-.91,0-1.48-.55-.43-1.25,0-1.57.17-.13.07-.83.47-1.32.72" style="fill: #fff;"/>
  <path id="Trazado_27" data-name="Trazado 27" d="m64.5,25.38c-6.63,3.25-14.28,3.74-21.27,1.34,0,0-.58-.28-.58.29,0,.36.81.69.81.69,5.5,2.2,11.56,2.54,17.27.97,1.88-.5,3.71-1.19,5.45-2.07,0,0,.58-.31,1.12-.62.4-.21.56-.7.35-1.1-.06-.12-.15-.22-.26-.3-.44-.24-.97-.24-1.41,0-.23.14-.98.53-1.48.78" style="fill: #fff;"/>
  <path id="Trazado_28" data-name="Trazado 28" d="m59.94,23.54c-5.29,2.25-11.17,2.69-16.73,1.24,0,0-.61-.23-.55.34.03.36.87.62.87.62,5.53,1.7,11.48,1.51,16.89-.55.85-.31,1.68-.65,2.49-1.03,1.21-.57.81-.39.99-.48.39-.16.58-.6.42-.99-.06-.15-.17-.28-.31-.37-.61-.47-1.54.09-1.82.23-.64.3-1.68.76-2.24.98" style="fill: #fff;"/>
</svg>