<?xml version="1.0" encoding="UTF-8"?>
<svg id="Capa_1" data-name="Capa 1" xmlns="http://www.w3.org/2000/svg" xmlns:xlink="http://www.w3.org/1999/xlink" viewBox="0 0 885.64 753.54">
  <defs>
    <style>
      .cls-1 {
        fill: #fff;
      }

      .cls-2 {
        fill: url(#Degradado_sin_nombre_10-3);
      }

      .cls-3 {
        fill: url(#Degradado_sin_nombre_10-2);
      }

      .cls-4 {
        fill: url(#Degradado_sin_nombre_10);
      }
    </style>
    <linearGradient id="Degradado_sin_nombre_10" data-name="Degradado sin nombre 10" x1="5.56" y1="313.49" x2="639.13" y2="313.49" gradientUnits="userSpaceOnUse">
      <stop offset="0" stop-color="#e3ca26"/>
      <stop offset=".14" stop-color="#e3ba25"/>
      <stop offset=".51" stop-color="#e39324"/>
      <stop offset=".81" stop-color="#e37b23"/>
      <stop offset="1" stop-color="#e37323"/>
    </linearGradient>
    <linearGradient id="Degradado_sin_nombre_10-2" data-name="Degradado sin nombre 10" x1="583.9" x2="885.64" xlink:href="#Degradado_sin_nombre_10"/>
    <linearGradient id="Degradado_sin_nombre_10-3" data-name="Degradado sin nombre 10" x1="694.65" y1="425.58" x2="723.82" y2="425.58" xlink:href="#Degradado_sin_nombre_10"/>
  </defs>
  <g>
    <path class="cls-4" d="m139.04,0h341.22c113.74,0,158.86,30.08,158.86,106.22,0,57.34-21.62,127.84-47.94,156.04-21.62,23.5-56.4,40.42-93.06,45.12l-.94,2.82c21.62,1.88,31.02,3.76,44.18,8.46,30.08,10.34,47.94,36.66,47.94,69.56s-9.4,80.84-22.56,122.2c-16.92,50.76-58.28,91.18-106.22,104.34-29.14,7.52-68.62,12.22-110.92,12.22H5.56L139.04,0Zm175.78,488.8c41.36,0,67.68-4.7,81.78-15.98,11.28-8.46,15.98-16.92,21.62-35.72,2.82-14.1,5.64-30.08,5.64-36.66,0-13.16-5.64-23.5-15.98-28.2q-7.52-3.76-55.46-5.64h-123.14l-25.38,122.2h110.92Zm46.06-237.82q64.86-.94,78.02-14.1c13.16-13.16,24.44-44.18,24.44-69.56,0-22.56-11.28-29.14-49.82-29.14h-135.36l-24.44,112.8h107.16Z"/>
    <g>
      <path class="cls-3" d="m717.38,0l-133.48,626.98h168.26L885.64,0h-168.26Zm.14,570.73c-2.41,11.38-3.9,15-7.42,17.98-3.41,2.9-8.38,3.92-13.72,2.78-3.37-.71-17.77-6.45-25.64-10.29-10.32-4.98-15.01-9.69-17.54-17.78-1.97-6.31-1.76-11.23,1.05-24.5,2.37-11.19,3.63-14.23,7-17.44,2.33-2.2,6.32-3,10.28-2.17,2.77.59,4.22,1.1,11.25,4.03l-3.71,17.52c-.57-.23-1.05-.43-1.25-.47-1.15-.45-2.39-.92-2.98-1.05-3.56-.75-5.02,1.21-6.65,8.94-1.49,7.03-.55,10.43,3.74,13.1,4.48,2.81,19.97,9.71,23.44,10.44,4.26.9,6.41-1.44,7.94-8.66,1.97-9.3.75-11.84-7.53-15.24l3.71-17.52c.85.39,1.7.77,1.88.91,8.41,3.75,11.6,5.77,14.01,9.07,3.07,4.06,4.89,10.13,4.67,15.57-.06,2.26-.85,6.96-2.51,14.78Zm16.08-78.4l-24.78-10.93-4.84,22.87,24.76,11.03-3.75,17.72-63.05-28.03,3.75-17.72,23.84,10.53,4.84-22.87-23.84-10.53,3.77-17.82,63.05,28.03-3.75,17.72Zm14.75-69.69l-11.59-1.42-5.03,23.76,10.21,7.95-3.9,18.41-58.86-47.83,5.68-26.83,67.3,7.94-3.81,18.02Zm4.8-22.66l-63.05-28.03,3.75-17.72,48.6,21.56,5.87-27.72,14.45,6.47-9.62,45.44Zm10.92-51.57l-63.05-28.03,3.75-17.72,48.6,21.56,5.87-27.72,14.45,6.47-9.62,45.44Zm10.91-51.57l-63.05-28.03,10.1-47.71,13.9,6.15-6.35,29.99,11.33,5.09,5.95-28.11,11.63,5.15-5.95,28.11,12.3,5.4,6.47-30.59,13.9,6.15-10.24,48.41Zm19.75-93.34l-28.76-1.43c-7.79-.31-15.75-.85-23.78-1.52l-.17.79,5.93,2.29c8.69,3.39,10.22,4.02,17.58,7.34l25.26,11.14-3.67,17.32-63.05-28.03,6.31-29.8,28.78,1.33,11.56.59c3.89.2,7.65.48,11.52.78l.15-.69-5.73-2.25c-8.79-3.41-9.44-3.76-17.11-7.14l-25.26-11.14,3.73-17.62,63.05,28.03-6.35,29.99Zm14.84-67.7c-2.56,12.08-4.45,16.12-8.99,19.51-3.08,2.35-7.99,3.07-12.84,2.04-6.24-1.32-27.38-10.86-32.73-14.89-6.18-4.51-9.71-10.33-10.79-17.9-.72-4.91-.23-9.67,2.1-20.65,1.89-8.91,3.12-12.78,4.88-15.72,3.08-5.24,7.02-6.79,13.46-5.43,2.18.46,4.22,1.1,7.63,2.55l-3.79,17.92-1.36-.39c-3.72-.99-5.39,1.03-6.96,8.46-2.37,11.19-.85,14.3,9.31,19.04,9.79,4.55,15.32,6.76,18,7.32,4.45.94,6.58-1.3,8.18-8.82,2.28-10.79.97-13.86-7.71-17.35l-2.6,12.27-11.63-5.15,6.31-29.8,1.9.81q13.09,5.56,15.72,6.84c8.9,4.37,13.17,9.61,14.35,17.72.65,4.27.03,10.14-2.4,21.62Zm-55.15-67.83l10.1-47.71,13.9,6.15-6.35,29.99,11.33,5.09,5.95-28.11,11.63,5.15-5.95,28.11,12.3,5.4,6.47-30.59,13.9,6.15-10.24,48.41-63.05-28.03Z"/>
      <polygon class="cls-2" points="723.82 419.31 694.65 415.41 720.34 435.74 723.82 419.31"/>
    </g>
    <g>
      <g>
        <path class="cls-1" d="m40.72,645.81c7.65,0,13.9,1.61,19.28,4.54l-1.13,7.56c-4.25-3.02-10.78-4.53-17.49-4.53-13.61,0-29.88,7.09-32.9,26.18-3.11,19.76,11.16,27.13,23.93,27.13,4.64,0,9.35-.94,12.94-2.55l4.16-26.18h8.13l-5.02,31.94c-6.61,2.84-14.27,4.35-21.26,4.35-16.45,0-34.78-10.5-30.82-35.64,3.59-22.59,23.73-32.8,40.18-32.8"/>
        <path class="cls-1" d="m66.63,713.11l10.48-66.17h25.71c11.92,0,24.11,5.2,21.74,20.51-1.89,12.01-10.87,17.2-20.6,18.91l17.96,26.75h-9.36l-17.48-26.08h-16.35l-4.16,26.08h-7.94Zm13.33-33.64h18.15c8.4,0,16.92-2.94,18.52-12.95,1.6-9.73-6.33-12.01-14.27-12.01h-18.53l-3.87,24.97Z"/>
        <path class="cls-1" d="m196.98,646.94l-6.72,42.26c-3.01,18.91-16.17,25.05-30.62,25.05s-27.61-6.72-24.58-25.62l6.62-41.69h7.94l-6.61,41.87c-2.18,13.42,5.29,17.87,16.54,17.87,12.1,0,20.8-5.02,22.97-18.43l6.52-41.31h7.95Z"/>
        <path class="cls-1" d="m237.15,646.94c13.23,0,26.46,5.1,23.82,21.84-2.55,16.35-15.88,20.89-31.19,20.89h-14.84l-3.69,23.44h-7.93l10.5-66.17h23.34Zm-.48,7.56h-16.15l-4.35,27.61h14.84c11.26,0,20.33-2.93,22.12-14.28,1.8-11.05-7.66-13.33-16.45-13.33"/>
        <path class="cls-1" d="m296.05,714.25c-21.46,0-32.24-17.41-29.5-34.7,2.74-16.92,16.64-33.74,39.61-33.74,21.46,0,32.24,17.39,29.49,34.69-2.74,16.92-15.68,33.75-39.59,33.75m.46-7.56c18.15,0,29.02-12.87,31.2-26.66,1.98-12.47-4.25-26.65-22.03-26.65s-29.01,12.85-31.19,26.65c-1.98,12.48,4.25,26.66,22.02,26.66"/>
      </g>
      <g>
        <path class="cls-1" d="m373.12,664.89c.2-2.85,3.34-4.72,10.42-4.82,6.59-.1,13.76,1.67,19.66,6.1l2.46-16.02c-5.41-3.44-13.76-5.8-22.71-5.8-13.27,0-26.06,6-28.22,19.17-3.93,24.18,31.85,20.84,30.28,32.15-.39,3.05-4.72,4.72-11.8,4.72-7.47,0-15.44-1.87-22.71-7.47l-2.65,16.61c6.58,4.03,15.54,6.59,25.85,6.59,14.65,0,27.03-4.33,29.89-19.96,4.43-23.99-31.06-22.21-30.48-31.26"/>
        <path class="cls-1" d="m499.46,645.81h-18.2l-8.77,55.34-12.97-55.34h-19.66l-37.95,68.82h19.07l5.6-10.82h28.51l2.26,10.82h62.63l2.56-16.22h-31.45l8.36-52.6Zm-65.1,43.26l10.13-19.47c1.08-1.96,1.96-4.13,3.05-7.37.1,3.34.39,5.7.79,7.57l3.74,19.27h-17.7Z"/>
        <polygon class="cls-1" points="537.63 645.81 526.72 714.63 544.92 714.63 555.82 645.81 537.63 645.81"/>
        <path class="cls-1" d="m666.4,645.81h-19.66l-30.75,55.77,8.85-55.77h-18.2l-4.42,28.02c-.59,3.45-1.09,8.07-1.17,11.11l-23.01-39.13h-15.14l-10.92,68.82h18.2l4.71-28.81c.49-3.24.99-6.98.99-10.22l22.9,39.03h29.09l5.61-10.82h28.5l2.27,10.82h18.28l-16.12-68.82Zm-25.17,43.26l10.13-19.47c1.08-1.96,1.96-4.13,3.05-7.37.09,3.34.39,5.7.79,7.57l3.73,19.27h-17.7Z"/>
        <path class="cls-1" d="m721.43,644.34c8.95,0,17.31,2.36,22.71,5.8l-2.46,16.02c-5.9-4.42-13.08-6.19-19.66-6.1-7.08.1-10.23,1.97-10.42,4.82-.6,9.05,34.9,7.27,30.47,31.26-2.85,15.63-15.24,19.96-29.89,19.96-10.32,0-19.26-2.56-25.86-6.59l2.66-16.61c7.28,5.6,15.25,7.47,22.71,7.47,7.08,0,11.4-1.67,11.79-4.72,1.57-11.31-34.21-7.97-30.27-32.15,2.17-13.17,14.94-19.17,28.21-19.17"/>
      </g>
    </g>
  </g>
  <g>
    <path class="cls-1" d="m55.93,728.71h3.85v24.51h-3.85v-24.51Z"/>
    <path class="cls-1" d="m85.1,735.47v17.75h-3.47v-24.51h4.83l3.96,14.67v-14.67h3.43v24.51h-3.96l-4.8-17.75Z"/>
    <path class="cls-1" d="m119.55,739.6h4.97v3.5h-4.97v10.12h-3.85v-24.51h10.19v3.5h-6.34v7.39Z"/>
    <path class="cls-1" d="m146.51,734.59c0-3.92,2.07-6.16,5.85-6.16s5.85,2.24,5.85,6.16v12.75c0,3.92-2.07,6.16-5.85,6.16s-5.85-2.24-5.85-6.16v-12.75Zm3.85,12.99c0,1.75.77,2.42,2,2.42s2-.67,2-2.42v-13.24c0-1.75-.77-2.42-2-2.42s-2,.67-2,2.42v13.24Z"/>
    <path class="cls-1" d="m187.83,753.22c-.21-.63-.35-1.02-.35-3.01v-3.85c0-2.28-.77-3.12-2.52-3.12h-1.33v9.98h-3.85v-24.51h5.81c3.99,0,5.71,1.86,5.71,5.64v1.93c0,2.52-.81,4.17-2.52,4.97,1.93.81,2.56,2.66,2.56,5.22v3.78c0,1.19.04,2.07.42,2.98h-3.92Zm-4.2-21.01v7.53h1.51c1.44,0,2.31-.63,2.31-2.59v-2.42c0-1.75-.6-2.52-1.96-2.52h-1.86Z"/>
    <path class="cls-1" d="m221.09,746.12l2.63-17.41h5.36v24.51h-3.64v-17.58l-2.66,17.58h-3.64l-2.87-17.33v17.33h-3.36v-24.51h5.36l2.84,17.41Z"/>
    <path class="cls-1" d="m263.42,753.22h-3.89l-.67-4.45h-4.73l-.67,4.45h-3.54l3.92-24.51h5.64l3.92,24.51Zm-8.79-7.77h3.71l-1.86-12.4-1.86,12.4Z"/>
    <path class="cls-1" d="m295.46,744.08v3.26c0,3.92-1.96,6.16-5.74,6.16s-5.74-2.24-5.74-6.16v-12.75c0-3.92,1.96-6.16,5.74-6.16s5.74,2.24,5.74,6.16v2.38h-3.64v-2.63c0-1.75-.77-2.42-2-2.42s-2,.67-2,2.42v13.24c0,1.75.77,2.38,2,2.38s2-.63,2-2.38v-3.5h3.64Z"/>
    <path class="cls-1" d="m316.88,728.71h3.85v24.51h-3.85v-24.51Z"/>
    <path class="cls-1" d="m342.3,734.59c0-3.92,2.07-6.16,5.85-6.16s5.85,2.24,5.85,6.16v12.75c0,3.92-2.07,6.16-5.85,6.16s-5.85-2.24-5.85-6.16v-12.75Zm9.98-11.07l-3.57,3.89h-2.59l2.38-3.89h3.78Zm-6.13,24.06c0,1.75.77,2.42,2,2.42s2-.67,2-2.42v-13.24c0-1.75-.77-2.42-2-2.42s-2,.67-2,2.42v13.24Z"/>
    <path class="cls-1" d="m379,735.47v17.75h-3.47v-24.51h4.83l3.96,14.67v-14.67h3.43v24.51h-3.96l-4.8-17.75Z"/>
    <path class="cls-1" d="m437.96,739.04h5.29v3.5h-5.29v7.18h6.65v3.5h-10.51v-24.51h10.51v3.5h-6.65v6.83Z"/>
    <path class="cls-1" d="m465.03,749.72c.42.04.91.04,1.33.04,1.23,0,2.21-.46,2.21-2.35v-18.7h3.85v18.42c0,4.9-2.63,6.16-5.53,6.16-.7,0-1.23,0-1.86-.07v-3.5Z"/>
    <path class="cls-1" d="m497.97,739.04h5.29v3.5h-5.29v7.18h6.65v3.5h-10.51v-24.51h10.51v3.5h-6.65v6.83Z"/>
    <path class="cls-1" d="m537.26,744.08v3.26c0,3.92-1.96,6.16-5.74,6.16s-5.74-2.24-5.74-6.16v-12.75c0-3.92,1.96-6.16,5.74-6.16s5.74,2.24,5.74,6.16v2.38h-3.64v-2.63c0-1.75-.77-2.42-2-2.42s-2,.67-2,2.42v13.24c0,1.75.77,2.38,2,2.38s2-.63,2-2.38v-3.5h3.64Z"/>
    <path class="cls-1" d="m562.36,728.71v18.91c0,1.75.77,2.38,2,2.38s2-.63,2-2.38v-18.91h3.64v18.67c0,3.92-1.96,6.16-5.74,6.16s-5.74-2.24-5.74-6.16v-18.67h3.85Z"/>
    <path class="cls-1" d="m590.58,728.71h11.91v3.5h-4.03v21.01h-3.85v-21.01h-4.03v-3.5Z"/>
    <path class="cls-1" d="m623.25,728.71h3.85v24.51h-3.85v-24.51Z"/>
    <path class="cls-1" d="m654.8,748.71l2.94-20h3.54l-3.78,24.51h-5.74l-3.78-24.51h3.89l2.94,20Z"/>
    <path class="cls-1" d="m693.73,753.22h-3.89l-.67-4.45h-4.73l-.67,4.45h-3.54l3.92-24.51h5.64l3.92,24.51Zm-8.79-7.77h3.71l-1.86-12.4-1.86,12.4Z"/>
  </g>
</svg>